<svg xmlns="http://www.w3.org/2000/svg" viewBox="0 0 32 32">
  <circle cx="16" cy="16" r="16" fill="#e0185e"/>
  <line x1="16" y1="6.2" x2="16" y2="2.9" stroke="white" stroke-width="1.05" stroke-linecap="round"/>
  <line x1="16" y1="6.2" x2="20"  y2="3.4" stroke="white" stroke-width="0.77" stroke-linecap="round"/>
  <line x1="16" y1="6.2" x2="12"  y2="3.4" stroke="white" stroke-width="0.77" stroke-linecap="round"/>
  <line x1="16" y1="6.2" x2="23.5" y2="4.6" stroke="white" stroke-width="0.67" stroke-linecap="round"/>
  <line x1="16" y1="6.2" x2="8.5"  y2="4.6" stroke="white" stroke-width="0.67" stroke-linecap="round"/>
  <line x1="16" y1="6.2" x2="26.1" y2="7.2" stroke="white" stroke-width="0.58" stroke-linecap="round"/>
  <line x1="16" y1="6.2" x2="5.9"  y2="7.2" stroke="white" stroke-width="0.58" stroke-linecap="round"/>
  <path d="M6.1,17.9 Q16,13.6 25.9,17.9 Q16,22.2 6.1,17.9Z" fill="white"/>
  <circle cx="16" cy="17.9" r="3.52" fill="#e0185e"/>
  <circle cx="16" cy="17.9" r="2.53" fill="none" stroke="white" stroke-width="0.54"/>
  <path d="M16,18.56 C16,18.56 14.62,17.18 14.62,16.5 C14.62,15.91 15.14,15.77 16,16.62 C16.86,15.77 17.38,15.91 17.38,16.5 C17.38,17.18 16,18.56 16,18.56Z" fill="white"/>
</svg>
