<svg xmlns="http://www.w3.org/2000/svg" viewBox="0 0 200 200">
  <!-- Background circle -->
  <circle cx="100" cy="100" r="100" fill="#e0185e"/>
  <!-- Rays -->
  <line x1="100" y1="39" x2="100" y2="18" stroke="white" stroke-width="6.5" stroke-linecap="round"/>
  <line x1="100" y1="39" x2="125" y2="21" stroke="white" stroke-width="4.8" stroke-linecap="round"/>
  <line x1="100" y1="39" x2="75"  y2="21" stroke="white" stroke-width="4.8" stroke-linecap="round"/>
  <line x1="100" y1="39" x2="147" y2="29" stroke="white" stroke-width="4.2" stroke-linecap="round"/>
  <line x1="100" y1="39" x2="53"  y2="29" stroke="white" stroke-width="4.2" stroke-linecap="round"/>
  <line x1="100" y1="39" x2="163" y2="45" stroke="white" stroke-width="3.6" stroke-linecap="round"/>
  <line x1="100" y1="39" x2="37"  y2="45" stroke="white" stroke-width="3.6" stroke-linecap="round"/>
  <!-- Eye almond -->
  <path d="M38,112 Q100,85 162,112 Q100,139 38,112Z" fill="white"/>
  <!-- Iris -->
  <circle cx="100" cy="112" r="22" fill="#e0185e"/>
  <!-- Ring -->
  <circle cx="100" cy="112" r="15.8" fill="none" stroke="white" stroke-width="3.4"/>
  <!-- Heart -->
  <path d="M100,116.3 C100,116.3 91.4,107.7 91.4,103.2 C91.4,99.5 94.7,98.6 100,103.9 C105.3,98.6 108.6,99.5 108.6,103.2 C108.6,107.7 100,116.3 100,116.3Z" fill="white"/>
</svg>
